PathFileType	4	(X/Y/Z)	D:\TRACE\v60_Jaco2_6-2-23\BothDRS_Motion1_5-v60.trc
DataRate	CameraRate	NumFrames	NumMarkers	Units	OrigDataRate	OrigDataStartFrame	OrigNumFrames
100.00	100.00	      31	9	mm	100.00	1716	      6863
Frame#	Time	front left toe			Front right toe			aft left toe			aft right toe			Arm			FL body			FR body			AL Body			AR Body			
		X1	Y1	Z1	X2	Y2	Z2	X3	Y3	Z3	X4	Y4	Z4	X5	Y5	Z5	X6	Y6	Z6	X7	Y7	Z7	X8	Y8	Z8	X9	Y9	Z9	

1716	17.150	-256.60977	18.60228	-245.82489	111.58859	58.55152	-264.17349	-241.68474	54.13618	378.91211	189.32509	15.53056	336.58151	-76.31851	1203.28821	-551.96741	-166.28557	583.89075	-389.10449	-6.52167	583.41455	-402.91440	-86.16982	545.62830	552.38367	70.82354	540.17657	540.91644	
1717	17.160	-256.68848	18.40696	-245.92365	108.64462	49.22404	-263.21863	-242.98396	45.70084	380.73499	189.32808	15.79722	336.55389	-76.81576	1202.93018	-551.69464	-167.27025	583.74310	-388.40335	-7.45594	583.03882	-402.37466	-87.43581	545.74841	553.04126	70.06198	540.34991	541.57208	
1718	17.170	-256.85901	18.29120	-245.99252	106.11963	40.23035	-262.18762	-244.11946	37.62882	382.43051	189.20944	15.95196	336.50671	-77.20680	1202.46790	-551.47412	-168.02875	583.35315	-387.87943	-8.15089	582.69061	-401.58069	-88.66685	545.75623	553.82489	65.42713	537.95721	539.32483	
1719	17.180	-256.64682	17.96334	-246.13600	104.51498	32.49195	-261.17447	-245.54691	30.83243	383.67273	189.35472	16.15611	336.53287	-77.76211	1201.77856	-551.09100	-169.05928	582.95160	-387.10242	-9.34875	582.01666	-400.79196	-90.00053	545.82520	554.61493	64.44543	537.48071	540.18372	
1720	17.190	-256.33810	17.58983	-246.21684	102.67378	26.08223	-259.87103	-244.93126	23.54134	385.51355	189.33394	16.46944	336.49521	-78.68079	1201.07910	-550.81140	-170.33380	582.77631	-386.32217	-10.48785	581.54138	-400.15036	-90.77074	545.88000	555.39594	66.65913	540.49243	545.17242	
1721	17.200	-256.24759	17.40982	-246.23514	101.17785	20.91438	-259.67255	-245.82071	17.44476	386.98132	189.45451	16.83754	336.46887	-78.75887	1200.50391	-550.37408	-171.37180	582.27271	-385.64908	-11.99399	581.09082	-399.64371	-92.05666	546.19177	556.17365	67.31474	540.20483	544.56970	
1722	17.210	-256.13226	16.99039	-246.18877	101.73980	18.91523	-260.49478	-246.10948	16.64342	385.55334	189.69162	17.39410	336.36450	-79.19328	1200.16577	-550.04340	-172.68750	582.10364	-384.67505	-12.88515	580.84882	-398.68558	-92.72154	546.40320	557.06854	64.39610	540.85413	546.34296	
1723	17.220	-255.85864	16.57828	-246.05939	102.55273	18.19355	-262.28903	-246.00041	14.13187	385.23190	189.85284	17.93295	336.23932	-79.73392	1200.04041	-549.51337	-174.12134	582.05286	-383.77039	-14.55028	580.61829	-397.30777	-93.92673	547.23676	557.90234	64.68345	541.04889	546.30371	
1724	17.230	-255.45987	16.97353	-246.02263	102.46709	17.92867	-261.27988	-245.76363	14.21932	386.13550	189.95851	18.55780	336.61954	-81.17813	1199.82056	-549.03906	-175.11917	582.29559	-382.74957	-15.21127	581.17639	-396.79947	-95.13228	548.41687	557.91296	62.23656	542.07654	547.18188	
1725	17.240	-254.80956	20.38382	-245.71671	101.52229	17.51469	-259.73645	-245.33611	14.08047	386.75732	187.61337	21.63716	336.66745	-82.40250	1200.37842	-548.75720	-176.32642	582.74304	-381.99835	-16.65864	581.55963	-395.49399	-95.35905	549.50385	559.65765	61.89558	542.99774	548.05896	
1726	17.250	-251.30736	23.87053	-242.14265	101.52789	17.87877	-261.49216	-245.88271	13.04892	385.53595	183.86009	24.44316	340.75754	-84.64382	1201.16602	-548.16418	-177.27405	583.70001	-381.29767	-17.37811	582.73334	-395.40173	-96.21938	549.86676	560.14209	61.07315	543.32550	548.54614	
1727	17.260	-248.97382	27.56233	-237.00528	102.11240	17.66057	-261.19568	-245.95683	14.19352	385.53717	178.72339	27.80571	345.15582	-86.84606	1202.04285	-547.17834	-177.91544	583.95557	-381.06805	-18.15989	582.84058	-394.93134	-96.79144	550.17969	560.64343	60.40734	543.56348	548.78967	
1728	17.270	-249.10437	37.68023	-235.97609	102.28531	17.10274	-261.44647	-245.49385	13.98856	385.99908	174.25851	37.69379	345.60745	-88.87996	1202.65869	-546.55829	-178.59718	583.53363	-380.76083	-18.84269	582.70367	-394.29913	-97.89375	550.57648	560.96753	59.78209	544.31305	549.32422	
1729	17.280	-249.21669	46.21804	-235.81183	102.76803	16.76153	-261.41589	-245.22743	13.94759	385.85809	171.69928	46.59524	346.64316	-90.72328	1202.75427	-546.27277	-178.81628	583.03607	-380.44873	-18.81212	582.56476	-394.40076	-98.53052	550.73322	561.27423	60.11483	544.93188	549.69440	
1730	17.290	-251.35461	58.49937	-236.16772	103.20322	16.31184	-261.16907	-245.30284	14.13571	385.69327	172.44366	59.91441	345.71652	-91.84459	1202.29944	-545.89557	-179.00034	582.51520	-380.24268	-19.07664	582.27490	-394.06198	-100.04324	550.76855	561.41583	57.53604	544.75421	550.26050	
1731	17.300	-253.33710	69.80560	-237.53195	103.69625	16.13183	-261.23929	-245.08517	14.08151	385.65585	173.12752	71.49506	345.72379	-93.06778	1201.21252	-546.46552	-178.72479	581.85272	-379.94971	-19.29231	581.77527	-393.61633	-100.56423	550.64716	561.73474	56.44373	545.11871	551.65216	
1732	17.310	-255.27463	81.24383	-237.51811	104.01698	16.28263	-261.27130	-244.76321	14.06978	385.57465	173.85603	83.80032	346.66373	-93.28995	1199.74536	-547.11890	-179.53317	581.39899	-379.94046	-19.48648	581.25055	-393.20044	-101.95088	550.09247	562.16559	55.72677	545.12189	551.79327	
1733	17.320	-256.89297	92.40525	-237.30112	104.44230	15.99660	-261.55875	-244.42505	14.19417	385.43143	172.72498	95.66888	347.57916	-93.27822	1198.69214	-547.65875	-179.80420	580.32263	-380.01862	-20.21135	580.41699	-392.88654	-102.88874	550.06219	562.31958	54.25805	544.69672	551.13379	
1734	17.330	-258.36508	102.92226	-237.09035	106.35722	15.89981	-261.38751	-243.99081	14.44501	385.35995	171.01788	106.73518	349.18234	-93.30901	1197.72693	-548.12122	-180.03476	578.99591	-379.87344	-20.24726	579.26337	-392.53778	-103.73014	550.52863	562.47791	53.27605	545.26166	551.34094	
1735	17.340	-259.53540	112.13311	-236.25749	105.35343	15.37610	-261.65219	-243.23929	14.74282	385.42810	168.93303	117.22268	351.24814	-93.28270	1196.88049	-548.69348	-179.77573	577.78735	-379.90735	-20.34731	578.43439	-392.55750	-104.51479	550.83905	562.54974	52.91235	545.88251	551.59979	
1736	17.350	-260.51419	120.35460	-235.51048	106.41766	15.21515	-261.44598	-243.01945	14.94920	385.18436	165.97284	126.50314	352.73166	-94.33514	1195.66321	-549.85608	-180.09148	576.72375	-379.99521	-20.23805	577.35046	-392.44919	-105.10879	551.18213	562.66205	51.89973	546.31384	551.69055	
1737	17.360	-261.95865	127.54346	-234.88708	106.57920	14.84138	-261.55911	-242.79793	15.03199	385.02695	163.47604	134.67877	354.30746	-94.92348	1194.16125	-550.57153	-179.90971	576.01422	-380.16595	-19.67522	576.83521	-392.85632	-106.00531	551.63037	562.63263	51.06969	546.80713	551.96399	
1738	17.370	-263.46631	132.85587	-234.50601	107.01985	14.66311	-261.52307	-242.33694	15.14547	384.94092	160.87398	141.10632	355.45462	-96.06620	1192.82324	-551.84094	-179.17226	575.03607	-380.06314	-20.04989	575.77716	-392.17908	-107.48209	551.91364	562.07239	50.04198	547.18768	552.20691	
1739	17.380	-265.32443	137.50221	-234.92426	107.56861	14.51927	-261.55438	-242.02487	15.40921	384.81619	158.44733	144.99887	356.52963	-96.95138	1191.33240	-552.93048	-179.14391	574.12213	-380.53259	-19.29329	575.38428	-392.34943	-108.20091	552.13666	562.35901	48.99989	547.98993	552.99664	
1740	17.390	-266.57065	140.38214	-235.29457	107.93412	14.34830	-261.66876	-241.48145	15.80560	384.58755	156.12167	146.65828	357.69690	-97.29529	1190.43042	-554.09845	-178.68245	573.62421	-380.78220	-18.72036	574.85449	-392.37186	-109.44583	552.63940	562.30902	48.39982	548.20801	552.27240	
1741	17.400	-268.36310	141.91290	-236.49532	108.30864	14.00810	-261.50116	-240.97057	15.95664	384.48163	153.58295	145.86282	358.61670	-96.97436	1189.45996	-555.20142	-178.15511	573.12885	-381.22806	-18.33163	574.64349	-392.41785	-110.18966	553.26715	562.11176	46.30837	549.01166	552.87018	
1742	17.410	-269.07825	139.64333	-237.51788	109.06893	13.99280	-261.49396	-240.52612	16.07753	384.35211	150.42680	142.97345	359.66986	-96.20067	1188.62769	-556.29059	-177.09108	572.75836	-381.24258	-17.29725	574.37390	-392.71884	-111.73604	553.86273	561.85883	45.16748	549.52234	552.31018	
1743	17.420	-269.52155	134.97783	-238.12479	109.72146	13.81095	-261.40366	-240.19969	16.33527	384.22412	147.49921	138.96056	361.11777	-95.84601	1187.94971	-557.37653	-176.54677	572.30933	-381.78915	-16.85263	573.95575	-392.95935	-113.05333	554.27008	561.38922	43.84369	550.26697	552.24811	
1744	17.430	-269.50851	129.74352	-239.33804	110.17116	13.59577	-261.62820	-239.74786	16.24886	384.00772	143.62453	133.83664	362.36935	-94.84006	1187.38708	-558.57147	-176.01381	571.83636	-382.34314	-16.33053	573.80627	-393.34698	-114.35159	554.79773	561.01447	42.37388	550.75153	552.21118	
1745	17.440	-269.84219	124.25245	-240.86327	110.63731	13.47027	-261.68466	-239.26285	16.33462	383.77490	139.66377	127.73502	363.25430	-93.56608	1186.76624	-559.63477	-175.41690	571.26105	-382.93713	-16.13482	573.38971	-393.18155	-115.59753	555.29303	560.64856	41.23950	551.30664	551.96265	
1746	17.450	-270.32037	118.03905	-242.28807	111.32559	13.27458	-261.66443	-238.87561	16.62110	383.47437	135.22112	120.69462	364.20490	-92.74564	1186.04626	-560.79846	-175.21106	571.21057	-383.66837	-15.51404	573.14355	-393.30743	-117.12763	555.68909	560.28278	39.66630	551.78278	551.92590	
